# xmcd
#
# Track frame offsets: 
#        150
#        12790
#        29759
#        46488
#        75315
#        95839
#        112952
#        132810
#        152628
#        166315
#        185383
#        206841
#        234683
#
# Disc length: 3385 seconds
#
# Revision: 0
# Processed by: cddbd v1.5.2PL0 Copyright (c) Steve Scherf et al.
# Submitted via: ExactAudioCopy v0.99pb3
#
DISCID=a50d370d
DTITLE=Blues Plate Special - Basic Ingredients
DYEAR=2010
DGENRE=Blues
TTITLE0=Fist Full Of Glasses
TTITLE1=Too Many Women
TTITLE2=Heed The Call
TTITLE3=Booze, Blues, Bikes and Tattoo
TTITLE4=Route 66
TTITLE5=Ten Kinds Of Fine
TTITLE6=Down, Sad and Troubled
TTITLE7=Pride and Joy
TTITLE8=My Baby's Got Moves
TTITLE9=Bad To Worse
TTITLE10=Headin' Out For The Weekend
TTITLE11=Sometimes
TTITLE12=Drinkin' Away My Blues
EXTD=
EXTT0=
EXTT1=
EXTT2=
EXTT3=
EXTT4=
EXTT5=
EXTT6=
EXTT7=
EXTT8=
EXTT9=
EXTT10=
EXTT11=
EXTT12=
PLAYORDER=
